# xmcd
#
# Track frame offsets:
#	150
#	14557
#	26995
#	39761
#	53083
#	71503
#	89018
#	111333
#	124373
#	138890
#	149377
#	170598
#	187080
#	202661
#	219026
#	236576
#	249894
#	263318
#	276387
#	291703
#	304921
#	319646
#	338175
#
# Disc length: 4706 seconds
#
# Revision: 1
# Processed by: cddbd v1.5.2PL0 Copyright (c) Steve Scherf et al.
# Submitted via: audiograbber 1.83.01
#
DISCID=5b126017
DTITLE=Various Artist - BKS-026
DYEAR=2013
DGENRE=Country
TTITLE0=Charlie Rich - Behind Closed Doors
TTITLE1=Conway Twitty - It's Only Make Believe
TTITLE2=Roger Miller - King Of The Road
TTITLE3=Johnny Cash - Folsom Prison Blues
TTITLE4=Glen Campbell - Rhinestone Cowboy
TTITLE5=Willie Nelson - Always On My Mind
TTITLE6=Marty Robbins - El Paso
TTITLE7=Patsy Cline - Walking After Midnight
TTITLE8=Hank Williams - Hey Good Lookin'
TTITLE9=Charlie Pride - Kiss An Angel Good Morning
TTITLE10=James Taylor - You've Got A Friend
TTITLE11=Glen Campbell - Southern Nights
TTITLE12=John Denver - Take Me Home Country Roads
TTITLE13=Linda Ronstadt - You're No Good
TTITLE14=Johnny Cash - A Boy Named Sue
TTITLE15=Don Gibson - Oh! Lonesome Me
TTITLE16=Patsy Cline - I Fall To Pieces
TTITLE17=Jim Reeves - Welcome To My World
TTITLE18=Glen Campbell - Honey Come Back
TTITLE19=Ray Charles - Take These Chains From My Heart
TTITLE20=Loretta Lynn - Coal Miner's Daughter
TTITLE21=Kenny Rogers and Dolly Parton - Islands In The Stream
TTITLE22=Patsy Cline - She's Got You
EXTD=
EXTT0=
EXTT1=
EXTT2=
EXTT3=
EXTT4=
EXTT5=
EXTT6=
EXTT7=
EXTT8=
EXTT9=
EXTT10=
EXTT11=
EXTT12=
EXTT13=
EXTT14=
EXTT15=
EXTT16=
EXTT17=
EXTT18=
EXTT19=
EXTT20=
EXTT21=
EXTT22=
PLAYORDER=
